<?xml version="1.0" encoding="UTF-8" standalone="no"?>
<!-- Created with Inkscape (http://www.inkscape.org/) -->

<svg
   width="13.025431"
   height="34.591129"
   viewBox="0 0 3.446312 9.1522365"
   version="1.1"
   id="svg5"
   inkscape:version="1.2.2 (732a01da63, 2022-12-09)"
   sodipodi:docname="detail-vin-grappe.svg"
   inkscape:export-filename="detail-vin-grappe.svg"
   inkscape:export-xdpi="96"
   inkscape:export-ydpi="96"
   xmlns:inkscape="http://www.inkscape.org/namespaces/inkscape"
   xmlns:sodipodi="http://sodipodi.sourceforge.net/DTD/sodipodi-0.dtd"
   xmlns:xlink="http://www.w3.org/1999/xlink"
   xmlns="http://www.w3.org/2000/svg"
   xmlns:svg="http://www.w3.org/2000/svg">
  <sodipodi:namedview
     id="namedview7"
     pagecolor="#ffffff"
     bordercolor="#999999"
     borderopacity="1"
     inkscape:showpageshadow="0"
     inkscape:pageopacity="0"
     inkscape:pagecheckerboard="0"
     inkscape:deskcolor="#d1d1d1"
     inkscape:document-units="mm"
     showgrid="false"
     inkscape:zoom="15.862692"
     inkscape:cx="4.6335137"
     inkscape:cy="15.255923"
     inkscape:window-width="1920"
     inkscape:window-height="1057"
     inkscape:window-x="-8"
     inkscape:window-y="-8"
     inkscape:window-maximized="1"
     inkscape:current-layer="layer3"
     showguides="false" />
  <defs
     id="defs2" />
  <g
     inkscape:label="grappe"
     inkscape:groupmode="layer"
     id="layer1"
     style="font-variation-settings:normal;display:none;opacity:1;vector-effect:none;fill:#000000;fill-opacity:1;stroke-width:1;stroke-linecap:butt;stroke-linejoin:miter;stroke-miterlimit:4;stroke-dasharray:none;stroke-dashoffset:0;stroke-opacity:1;-inkscape-stroke:none;stop-color:#000000;stop-opacity:1"
     sodipodi:insensitive="true"
     transform="translate(-2.6026906,-1.7089188)">
    <g
       id="g830"
       transform="translate(0.10276597,0.27098299)">
      <g
         id="g479"
         transform="translate(-0.33865451)">
        <g
           id="g2257"
           transform="matrix(0.25895323,0,0,0.25895323,1.0540089,-0.05377624)"
           style="fill:#09f06c;fill-opacity:1">
          <circle
             style="fill:#09f06c;fill-opacity:1;stroke:#252525;stroke-width:0.465305;stroke-linecap:square;stroke-miterlimit:10.5;stroke-dasharray:none;stroke-opacity:1;paint-order:stroke fill markers;stop-color:#000000"
             id="path285"
             cx="16.162695"
             cy="28.966835"
             r="3.4822869" />
          <circle
             style="fill:#09f06c;fill-opacity:1;stroke:#252525;stroke-width:0.465305;stroke-linecap:square;stroke-miterlimit:10.5;stroke-dasharray:none;stroke-opacity:1;paint-order:stroke fill markers;stop-color:#000000"
             id="path285-1"
             cx="24.904602"
             cy="28.951754"
             r="3.4822869" />
          <circle
             style="fill:#09f06c;fill-opacity:1;stroke:#252525;stroke-width:0.465305;stroke-linecap:square;stroke-miterlimit:10.5;stroke-dasharray:none;stroke-opacity:1;paint-order:stroke fill markers;stop-color:#000000"
             id="path285-4"
             cx="33.753281"
             cy="28.968405"
             r="3.4822869" />
          <circle
             style="fill:#09f06c;fill-opacity:1;stroke:#252525;stroke-width:0.465305;stroke-linecap:square;stroke-miterlimit:10.5;stroke-dasharray:none;stroke-opacity:1;paint-order:stroke fill markers;stop-color:#000000"
             id="path285-1-4"
             cx="20.501373"
             cy="36.62653"
             r="3.4822869" />
          <circle
             style="fill:#09f06c;fill-opacity:1;stroke:#252525;stroke-width:0.465305;stroke-linecap:square;stroke-miterlimit:10.5;stroke-dasharray:none;stroke-opacity:1;paint-order:stroke fill markers;stop-color:#000000"
             id="path285-4-8"
             cx="29.320187"
             cy="36.62468"
             r="3.4822869" />
          <circle
             style="fill:#09f06c;fill-opacity:1;stroke:#252525;stroke-width:0.465305;stroke-linecap:square;stroke-miterlimit:10.5;stroke-dasharray:none;stroke-opacity:1;paint-order:stroke fill markers;stop-color:#000000"
             id="path285-1-4-5"
             cx="20.479044"
             cy="21.147394"
             r="3.4822869" />
          <circle
             style="fill:#09f06c;fill-opacity:1;stroke:#252525;stroke-width:0.465305;stroke-linecap:square;stroke-miterlimit:10.5;stroke-dasharray:none;stroke-opacity:1;paint-order:stroke fill markers;stop-color:#000000"
             id="path285-4-8-1"
             cx="29.353741"
             cy="21.150328"
             r="3.4822869" />
          <circle
             style="fill:#09f06c;fill-opacity:1;stroke:#252525;stroke-width:0.465305;stroke-linecap:square;stroke-miterlimit:10.5;stroke-dasharray:none;stroke-opacity:1;paint-order:stroke fill markers;stop-color:#000000"
             id="path285-4-8-7"
             cx="24.905346"
             cy="44.25412"
             r="3.4822869" />
        </g>
        <a
           id="a2265"
           xlink:href="grappe"
           transform="matrix(-0.8635565,0,0,0.27048208,29.34459,-0.40893193)">
          <path
             style="fill:#000000;fill-opacity:1;fill-rule:nonzero;stroke:none;stroke-width:0.264583"
             id="path2262"
             d="m 25.481556,5.3681083 c 0.141059,0.2093062 0.326214,0.3948813 0.423167,0.6279296 0.503185,1.2093118 0.611542,2.1638285 0.637043,3.4955237 0.0241,1.2582624 -0.15631,3.1864244 -0.409913,4.4112314 -0.142481,0.688126 -0.379933,1.353114 -0.569899,2.02967 -0.616206,1.934653 -0.437076,1.048456 -0.648259,2.633753 0,0 0.650704,-0.349974 0.650704,-0.349974 v 0 c 0.589448,-1.640719 0.371528,-0.77027 0.615496,-2.620631 0.255994,-2.570509 0.09436,-1.216092 0.503829,-4.060949 0.09734,-0.904853 0.225048,-3.4745469 0.275709,-4.3919703 0.03449,-0.6247066 0.128118,-1.2488346 0.104719,-1.874057 -0.01003,-0.2680679 -0.135989,-0.5189872 -0.203993,-0.7784781 0,0 -1.378613,0.8779527 -1.378613,0.8779533 z" />
        </a>
      </g>
    </g>
  </g>
  <g
     inkscape:groupmode="layer"
     id="layer2"
     inkscape:label="bouquet"
     style="display:inline"
     sodipodi:insensitive="true"
     transform="translate(-2.6026906,-1.7089188)">
    <path
       style="fill:#000000;stroke:none;stroke-width:1.19055;-inkscape-stroke:none;paint-order:stroke fill markers;stop-color:#000000"
       d="m 3.8632966,7.5340725 c 0,0 0.1091818,-0.023668 0.124174,-0.095133 0.020749,-0.060007 0.036794,-0.02793 0.043788,-0.081935 0.00545,-0.016944 0.023329,0.012099 0.00364,0.112241 -0.015176,0.077201 -0.076022,0.194888 -0.098488,0.1868357 -0.096463,-0.00164 -0.063906,-0.090759 -0.07312,-0.1220087 z"
       id="path524"
       sodipodi:nodetypes="cccscc" />
    <path
       style="fill:#000000;stroke:none;stroke-width:1.21783;-inkscape-stroke:none;paint-order:stroke fill markers;stop-color:#000000"
       d="m 3.9052371,5.2728698 c 0,0 -0.088047,-0.030709 -0.1001369,-0.1234376 -0.016732,-0.077861 -0.029673,-0.03624 -0.035312,-0.1063141 -0.00439,-0.021986 -0.018814,0.015699 -0.00294,0.1456362 0.012237,0.1001721 0.061306,0.2528737 0.079424,0.2424257 0.07779,-0.00213 0.051535,-0.117762 0.058965,-0.1583102 z"
       id="path1138"
       sodipodi:nodetypes="cccscc" />
    <path
       style="fill:#000000;stroke:none;stroke-width:1.19055;-inkscape-stroke:none;paint-order:stroke fill markers;stop-color:#000000"
       d="m 3.9987729,5.9724791 c 0,0 -0.1096329,-0.016045 -0.1087011,-0.083842 -0.00782,-0.056427 -0.03227,-0.024594 -0.026992,-0.076096 -0.00177,-0.015959 -0.027446,0.013069 -0.030144,0.1081553 -0.00208,0.073303 0.034527,0.182728 0.060114,0.1736034 0.1021446,-0.00751 0.088684,-0.091203 0.1057276,-0.1218206 z"
       id="path1140"
       sodipodi:nodetypes="cccscc" />
    <path
       style="fill:#000000;stroke:none;stroke-width:1.0484;-inkscape-stroke:none;paint-order:stroke fill markers;stop-color:#000000"
       d="m 3.6426852,7.8078496 c 0,0 -0.086099,-0.00138 -0.1056681,-0.068778 -0.022666,-0.05495 -0.031281,-0.020124 -0.042758,-0.071924 -0.00608,-0.015599 -0.016448,0.016606 0.00997,0.1113095 0.020361,0.073009 0.08021,0.1767274 0.096458,0.1642814 0.073508,-0.02099 0.038515,-0.1022518 0.042005,-0.1348902 z"
       id="path1144"
       sodipodi:nodetypes="cccscc" />
    <path
       style="fill:#12ee23;fill-opacity:1;fill-rule:nonzero;stroke:none;stroke-width:0.314998;stroke-opacity:1"
       id="path1979"
       d="m 2.6551911,10.861156 c 0.054045,-0.04573 0.086529,-0.113822 0.1193206,-0.179961 0.016052,-0.03238 0.031769,-0.06498 0.047653,-0.09747 0.086546,-0.190615 0.1721657,-0.382009 0.2516595,-0.576835 0.044813,-0.1098275 0.1170338,-0.2991885 0.1589143,-0.4079845 0.026737,-0.07027 0.053906,-0.140325 0.080208,-0.210825 0.06439,-0.172592 0.106391,-0.286074 0.160229,-0.466469 0.0906,-0.303574 0.1597023,-0.61484 0.2308625,-0.92515 C 3.8144667,7.52496 3.8946582,7.0448628 3.9530026,6.5609266 c 0.024685,-0.204754 0.056502,-0.5312097 0.077473,-0.740052 0.010979,-0.1083112 0.021551,-0.2166792 0.032935,-0.3249323 0.020843,-0.1981455 0.037009,-0.3439193 0.063106,-0.5395351 0.023684,-0.1775225 0.052366,-0.3538871 0.081808,-0.5301838 0.01708,-0.073844 0.023296,-0.1520561 0.045465,-0.224449 0.00923,-0.03015 0.00782,-0.016544 0.0079,-0.00569 0,0 -0.045362,-0.071777 -0.045362,-0.071777 v 0 c -0.00317,4.091e-4 -0.0074,-0.00153 -0.00952,0.00126 -0.00403,0.00531 -0.00496,0.013039 -0.00655,0.019901 -0.00369,0.015992 -0.00637,0.032277 -0.00921,0.0485 -0.010495,0.059912 -0.020083,0.1241875 -0.029346,0.1838961 -0.037798,0.2655287 -0.074452,0.5313114 -0.102819,0.7985018 -0.010121,0.09537 -0.018716,0.1909553 -0.027814,0.2864667 -0.010396,0.1090688 -0.020438,0.2181815 -0.030657,0.3272722 -0.035072,0.3786565 -0.070093,0.7569552 -0.1266324,1.1322862 -0.042369,0.2812526 -0.075612,0.4490973 -0.1329305,0.7233011 -0.022133,0.1058838 -0.045939,0.2112784 -0.068909,0.316917 -0.070624,0.310177 -0.1411934,0.61781 -0.2351563,0.919788 -0.051621,0.165901 -0.1026242,0.302663 -0.1627047,0.463379 -0.02635,0.07049 -0.05334,0.140641 -0.080009,0.210961 -0.1302261,0.330273 -0.26496,0.6582535 -0.4193056,0.9742245 -0.048299,0.09403 -0.092839,0.201559 -0.1720735,0.265723 0,0 0.052503,0.06447 0.052503,0.06447 z" />
    <g
       id="g2183"
       transform="matrix(2.3838073,-0.47593109,0.40634955,2.7919999,-8.5757899,-13.075245)">
      <path
         style="fill:#000000;stroke:none;stroke-width:0.533426;-inkscape-stroke:none;paint-order:stroke fill markers;stop-color:#000000"
         d="m 4.005179,7.6279389 c 0,0 0.042327,0.019315 0.073943,-0.00159 0.029038,-0.015496 0.021812,-3.82e-4 0.044376,-0.017267 0.00807,-0.00448 0.00256,0.010049 -0.041333,0.039671 -0.033838,0.022834 -0.096949,0.048151 -0.1007733,0.039717 -0.028872,-0.024845 0.014788,-0.04742 0.02379,-0.060529 z"
         id="path1142"
         sodipodi:nodetypes="cccscc"
         inkscape:transform-center-x="-0.13343679"
         inkscape:transform-center-y="-0.15011639" />
      <path
         style="fill:#0ff231;fill-opacity:1;stroke:none;stroke-width:0.02;stroke-linecap:square;stroke-dasharray:none;stroke-opacity:1;paint-order:markers fill stroke;stop-color:#000000"
         d="m 4.1408277,6.5793828 c 0,0 -0.058345,0.3081632 0.2529044,0.3104301 0.072612,7.806e-4 0.1896277,-0.012208 0.1305747,-0.025496 C 4.441791,6.8458047 4.3591085,6.8321946 4.3042748,6.7941654 4.2075271,6.7258569 4.170231,6.6791247 4.1408277,6.5793828 Z"
         id="path2035"
         sodipodi:nodetypes="ccccc" />
      <path
         style="fill:#c54141;fill-opacity:1;stroke:none;stroke-width:0.02;stroke-linecap:square;stroke-dasharray:none;stroke-opacity:1;paint-order:markers fill stroke;stop-color:#000000"
         d="m 4.230856,6.6348456 c 0,0 0.041519,0.099647 0.1577747,0.1245592 0.116255,0.02491 0.1743827,0.087191 0.1743827,0.087191 0,0 0.2408142,-0.1453189 0.3072458,-0.3238537 0.066431,-0.1785345 -0.3487656,-0.087191 -0.3487656,-0.087191 0,0 -0.1536229,0.00831 -0.1411668,-0.099647 C 4.3927834,6.2279527 4.230856,6.6348456 4.230856,6.6348456 Z"
         id="path2037" />
      <path
         style="fill:#c54141;fill-opacity:1;stroke:none;stroke-width:0.02;stroke-linecap:square;stroke-dasharray:none;stroke-opacity:1;paint-order:markers fill stroke;stop-color:#000000"
         d="m 4.2059441,6.6223898 -0.066432,-0.091343 c 0,0 -0.00415,-0.3902851 0.078887,-0.2740298 0.083039,0.116255 0.087191,0.1536226 0.087191,0.1536226 z"
         id="path2147" />
      <path
         style="fill:#c54141;fill-opacity:1;stroke:none;stroke-width:0.02;stroke-linecap:square;stroke-dasharray:none;stroke-opacity:1;paint-order:markers fill stroke;stop-color:#000000"
         d="m 4.5879252,6.8756598 c 0,0 0.2574221,-0.04152 0.3072456,-0.083039 0.049824,-0.04152 0.128711,-0.27403 0.128711,-0.27403 0,0 -0.095495,0.062279 -0.107951,0 -0.012457,-0.062279 -0.066432,0.1121031 -0.066432,0.1121031 0,0 -0.1702308,0.2242064 -0.2615736,0.2449659 z"
         id="path2149" />
      <path
         style="fill:#c54141;fill-opacity:1;stroke:none;stroke-width:0.02;stroke-linecap:square;stroke-dasharray:none;stroke-opacity:1;paint-order:markers fill stroke;stop-color:#000000"
         d="m 4.3138952,6.3774237 c 0,0 -0.062279,-0.1328631 -0.099647,-0.157775 -0.037368,-0.024913 0.016608,-0.091343 0.016608,-0.091343 0,0 0.066431,0.04152 0.091343,0.1079511 0.024913,0.066432 0.024913,0.074736 0.024913,0.074736 z"
         id="path2151" />
      <path
         style="fill:#c54141;fill-opacity:1;stroke:none;stroke-width:0.02;stroke-linecap:square;stroke-dasharray:none;stroke-opacity:1;paint-order:markers fill stroke;stop-color:#000000"
         d="m 4.4384544,6.3898795 0.066431,0.020759 c 0,0 0.1536229,-0.041519 0.2325103,-0.033215 0.078887,0.00831 0.1287111,0.049823 0.1287111,0.049823 l 0.074736,-0.041519 c 0,0 0.066431,-0.016608 0.012457,-0.053976 -0.053975,-0.037368 -0.1702308,-0.029064 -0.1702308,-0.029064 0,0 -0.1702305,0.049824 -0.2117503,0.049824 -0.04152,0 -0.1328629,0.037368 -0.1328629,0.037368 z"
         id="path2153" />
      <path
         style="fill:#c54141;fill-opacity:1;stroke:none;stroke-width:0.02;stroke-linecap:square;stroke-dasharray:none;stroke-opacity:1;paint-order:markers fill stroke;stop-color:#000000"
         d="m 4.3138952,6.1739771 -0.045672,-0.04152 c 0,0 0,-0.037368 0.029064,-0.037368 0.029064,0 0.049824,-0.00415 0.049824,-0.00415 0,0 0.020759,0.020759 0.091343,0.016608 0.070583,-0.00415 0.1079511,-0.037368 0.1079511,-0.037368 l 0.053975,0.016608 c 0,0 -0.25327,0.045672 -0.2864858,0.087191 z"
         id="path2155" />
      <path
         style="fill:#c54141;fill-opacity:1;stroke:none;stroke-width:0.02;stroke-linecap:square;stroke-dasharray:none;stroke-opacity:1;paint-order:markers fill stroke;stop-color:#000000"
         d="m 4.3221991,6.190585 0.016608,0.058128 0.074736,-0.070583 c 0,0 -0.00415,-0.04152 0.087191,-0.045672 0.091343,-0.00415 0.1494708,-0.00415 0.1494708,-0.00415 0,0 0.00415,-0.020759 -0.04152,-0.020759 -0.045672,0 -0.1370151,0.016608 -0.1370151,0.016608 0,0 -0.083039,0.029064 -0.1037992,0.037368 -0.020759,0.00831 -0.045672,0.029064 -0.045672,0.029064 z"
         id="path2157" />
      <path
         style="fill:#c54141;fill-opacity:1;stroke:none;stroke-width:0.02;stroke-linecap:square;stroke-dasharray:none;stroke-opacity:1;paint-order:markers fill stroke;stop-color:#000000"
         d="m 4.8910189,6.4397032 0.099647,-0.06228 c 0,0 0.012457,-0.016608 0.012457,0.037368 0,0.053975 -0.012457,0.095495 -0.012457,0.095495 l -0.020759,0.012457 c 0,0 -0.049824,0.012457 -0.049824,-0.012457 0,-0.024913 -0.020759,-0.033216 -0.020759,-0.033216 z"
         id="path2159" />
      <path
         style="fill:#c54141;fill-opacity:1;stroke:none;stroke-width:0.02;stroke-linecap:square;stroke-dasharray:none;stroke-opacity:1;paint-order:markers fill stroke;stop-color:#000000"
         d="m 4.8162834,6.2736246 c 0,0 0.1079511,0.029064 0.1079511,0.00415 0,-0.024911 -0.06228,-0.074736 -0.083039,-0.08304 -0.02076,-0.0083 -0.1826866,-0.058127 -0.1826866,-0.058127 l -0.1992945,0.016608 c 0,0 -0.074736,0.024913 -0.012457,0.020759 0.062279,-0.00415 0.1826866,-0.00831 0.1826866,-0.00831 l 0.078887,0.02491 c 0,0 -0.00415,-0.020759 0.037368,0.020759 0.04152,0.04152 0.070583,0.06228 0.070583,0.06228 z"
         id="path2161" />
      <path
         style="fill:#c54141;fill-opacity:1;stroke:none;stroke-width:0.02;stroke-linecap:square;stroke-dasharray:none;stroke-opacity:1;paint-order:markers fill stroke;stop-color:#000000"
         d="m 4.3512631,6.2653206 0.053975,-0.053976 0.016608,0.045672 c 0,0 0,0.037368 0.037368,0.049823 0.037368,0.012457 0.066432,0.024913 0.066432,0.024913 l -0.024913,0.012457 -0.070583,0.024913 h -0.016608 c 0,0 -0.016608,0 -0.016608,-0.024913 0,-0.024913 -0.00415,-0.04152 -0.00415,-0.04152 z"
         id="path2163" />
      <path
         style="fill:#c54141;fill-opacity:1;stroke:none;stroke-width:0.02;stroke-linecap:square;stroke-dasharray:none;stroke-opacity:1;paint-order:markers fill stroke;stop-color:#000000"
         d="m 4.4301505,6.198889 c 0,0 0.062279,-0.012457 0.091343,-0.0083 0.029064,0.00415 0.1079514,-0.00831 0.1245592,0.0083 0.016608,0.016608 0.091343,0.029064 0.099647,0.066432 0.00831,0.037368 -0.020759,0.016608 -0.020759,0.016608 L 4.6668127,6.265321 c 0,0 -0.066432,-0.066432 -0.1121031,-0.053976 -0.045672,0.012456 -0.049824,0.012456 -0.049824,0.012456 h -0.00415 z"
         id="path2165" />
      <path
         style="fill:#c54141;fill-opacity:1;stroke:none;stroke-width:0.02;stroke-linecap:square;stroke-dasharray:none;stroke-opacity:1;paint-order:markers fill stroke;stop-color:#000000"
         d="m 4.4301505,6.2196487 c 0,0 -0.016608,0.029064 0.00831,0.049824 0.024913,0.020759 0.053976,0.020759 0.053976,0.020759 l 0.037368,0.016608 h 0.074736 c 0,0 -0.095495,-0.020759 -0.1121031,-0.045672 -0.016608,-0.024913 -0.062279,-0.04152 -0.062279,-0.04152 z"
         id="path2167" />
    </g>
  </g>
</svg>
